<svg width="44" height="44" viewBox="0 0 44 44" fill="none" xmlns="http://www.w3.org/2000/svg">
<path d="M16.5 29.3334C18.0583 30.4884 19.9558 31.1667 22 31.1667C24.0442 31.1667 25.9417 30.4884 27.5 29.3334" stroke="black" stroke-width="3" stroke-linecap="round"/>
<path d="M27.5003 22C28.5128 22 29.3337 20.7688 29.3337 19.25C29.3337 17.7312 28.5128 16.5 27.5003 16.5C26.4878 16.5 25.667 17.7312 25.667 19.25C25.667 20.7688 26.4878 22 27.5003 22Z" fill="black"/>
<path d="M16.5003 22C17.5128 22 18.3337 20.7688 18.3337 19.25C18.3337 17.7312 17.5128 16.5 16.5003 16.5C15.4878 16.5 14.667 17.7312 14.667 19.25C14.667 20.7688 15.4878 22 16.5003 22Z" fill="black"/>
<path d="M40.3337 22C40.3337 30.6424 40.3337 34.9635 37.6478 37.6475C34.9657 40.3334 30.6427 40.3334 22.0003 40.3334C13.358 40.3334 9.03683 40.3334 6.35099 37.6475C3.66699 34.9654 3.66699 30.6424 3.66699 22C3.66699 13.3577 3.66699 9.03652 6.35099 6.35069C9.03866 3.66669 13.358 3.66669 22.0003 3.66669C30.6427 3.66669 34.9638 3.66669 37.6478 6.35069C39.4335 8.13635 40.0312 10.6462 40.2328 14.6667" stroke="black" stroke-width="3" stroke-linecap="round"/>
</svg>
