<svg width="44" height="44" viewBox="0 0 44 44" fill="none" xmlns="http://www.w3.org/2000/svg">
<path d="M12.834 7.33331V4.58331M31.1673 7.33331V4.58331" stroke="black" stroke-width="3" stroke-linecap="round"/>
<path d="M16.5 26.5833L19.25 23.8333V31.1666" stroke="black" stroke-width="3" stroke-linecap="round" stroke-linejoin="round"/>
<path d="M39.417 16.5H19.7087M3.66699 16.5H10.7712M23.8337 29.3333V25.6667C23.8337 25.1804 24.0268 24.7141 24.3706 24.3703C24.7144 24.0265 25.1808 23.8333 25.667 23.8333C26.1532 23.8333 26.6195 24.0265 26.9634 24.3703C27.3072 24.7141 27.5003 25.1804 27.5003 25.6667V29.3333C27.5003 29.8196 27.3072 30.2859 26.9634 30.6297C26.6195 30.9735 26.1532 31.1667 25.667 31.1667C25.1808 31.1667 24.7144 30.9735 24.3706 30.6297C24.0268 30.2859 23.8337 29.8196 23.8337 29.3333Z" stroke="black" stroke-width="3" stroke-linecap="round"/>
<path d="M25.667 40.3333H18.3337C11.4202 40.3333 7.96249 40.3333 5.81566 38.1846C3.66883 36.036 3.66699 32.5801 3.66699 25.6666V22C3.66699 15.0865 3.66699 11.6288 5.81566 9.48198C7.96433 7.33515 11.4202 7.33331 18.3337 7.33331H25.667C32.5805 7.33331 36.0382 7.33331 38.185 9.48198C40.3318 11.6306 40.3337 15.0865 40.3337 22V25.6666C40.3337 32.5801 40.3337 36.0378 38.185 38.1846C36.9878 39.3836 35.3837 39.9135 33.0003 40.1463" stroke="black" stroke-width="3" stroke-linecap="round"/>
</svg>
